/* XPM */
static const char *choe[] = {
/* columns rows colors chars-per-pixel */
"74 100 236 2 ",
"   c None",
".  c #140E0B",
"X  c #16120F",
"o  c #1D110E",
"O  c #171412",
"+  c #1A1613",
"@  c #1D1916",
"#  c #1F1B18",
"$  c #2A0E0C",
"%  c #390C0A",
"&  c #27110E",
"*  c #36110E",
"=  c #211E1A",
"-  c #271714",
";  c #331A17",
":  c #25211E",
">  c #37291E",
",  c #262321",
"<  c #292622",
"1  c #2C2926",
"2  c #2E2B29",
"3  c #312E2B",
"4  c #3A2926",
"5  c #34312E",
"6  c #3F332D",
"7  c #363330",
"8  c #393633",
"9  c #3C3936",
"0  c #3E3B39",
"q  c #460A09",
"w  c #580706",
"e  c #561A1A",
"r  c #471A19",
"t  c #650001",
"y  c #6C0000",
"u  c #670A0A",
"i  c #730001",
"p  c #7C0001",
"a  c #78080B",
"s  c #7C0D11",
"d  c #641A19",
"f  c #781512",
"g  c #7D231D",
"h  c #492524",
"j  c #572726",
"k  c #4A3729",
"l  c #523A28",
"z  c #403D3B",
"x  c #423F3C",
"c  c #413C3B",
"v  c #4B3635",
"b  c #573434",
"n  c #692524",
"m  c #762B2A",
"M  c #683836",
"N  c #733C3C",
"B  c #783837",
"V  c #57442C",
"C  c #43403E",
"Z  c #44413F",
"A  c #5B4938",
"S  c #73593E",
"D  c #674F33",
"F  c #454240",
"G  c #464341",
"H  c #464441",
"J  c #474442",
"K  c #474542",
"L  c #434242",
"P  c #484543",
"I  c #484643",
"U  c #494644",
"Y  c #4F4E4E",
"T  c #5A5959",
"R  c #7B4645",
"E  c #685647",
"W  c #6F584C",
"Q  c #6F6258",
"!  c #777370",
"~  c #840202",
"^  c #8B0405",
"/  c #8C0A05",
"(  c #840C0C",
")  c #8C0C0A",
"_  c #860907",
"`  c #920D06",
"'  c #920C0A",
"]  c #8B1408",
"[  c #94130C",
"{  c #9A140D",
"}  c #961B0B",
"|  c #891717",
" . c #951512",
".. c #9B1612",
"X. c #951915",
"o. c #9C1B14",
"O. c #9C1D1B",
"+. c #961A1B",
"@. c #8B061F",
"#. c #A21C14",
"$. c #A11E19",
"%. c #A21A0F",
"&. c #9D231C",
"*. c #9B2814",
"=. c #9B3617",
"-. c #91280E",
";. c #A4231C",
":. c #AA251C",
">. c #A62619",
",. c #A3371A",
"<. c #991826",
"1. c #8E0D21",
"2. c #882726",
"3. c #972A28",
"4. c #8B312B",
"5. c #98342C",
"6. c #833433",
"7. c #893A38",
"8. c #9C3432",
"9. c #9D3D3B",
"0. c #953936",
"q. c #9A2632",
"w. c #A42622",
"e. c #A52A24",
"r. c #AB2A24",
"t. c #AC2E2A",
"y. c #A72926",
"u. c #B12D26",
"i. c #AD322C",
"p. c #A83727",
"a. c #B2332D",
"s. c #B33B2D",
"d. c #A92B35",
"f. c #A43D3A",
"g. c #A93736",
"h. c #B23631",
"j. c #B43A35",
"k. c #B53E39",
"l. c #B93E39",
"z. c #B63938",
"x. c #A31D2E",
"c. c #9E421A",
"v. c #A4431C",
"b. c #944436",
"n. c #A44A2C",
"m. c #A84626",
"M. c #A6463A",
"N. c #B6423C",
"B. c #BA423D",
"V. c #B84839",
"C. c #A9543A",
"Z. c #B7553A",
"A. c #B04C2D",
"S. c #AD3A44",
"D. c #854947",
"F. c #9B4543",
"G. c #895553",
"H. c #955956",
"J. c #935447",
"K. c #A24442",
"L. c #A94A46",
"P. c #BB4641",
"I. c #BD4A45",
"U. c #BE4D49",
"Y. c #B54747",
"T. c #AB5343",
"R. c #A9564A",
"E. c #BD5442",
"W. c #BE514D",
"Q. c #B75A48",
"!. c #AA5A56",
"~. c #B45C59",
"^. c #B85655",
"/. c #B74C54",
"(. c #9C684E",
"). c #876758",
"_. c #926E55",
"`. c #A8684B",
"'. c #B9644D",
"]. c #AB6956",
"[. c #BA625D",
"{. c #B86457",
"}. c #AA775A",
"|. c #B5795D",
" X c #8A6362",
".X c #8E736E",
"XX c #AC6761",
"oX c #B96864",
"OX c #A97A63",
"+X c #B97A66",
"@X c #AB7875",
"#X c #C04E4A",
"$X c #C04C46",
"%X c #C1524D",
"&X c #C0594A",
"*X c #C35651",
"=X c #C55A55",
"-X c #C65D59",
";X c #C85E5A",
":X c #C6625B",
">X c #C9615D",
",X c #C86A5D",
"<X c #C46857",
"1X c #C1664E",
"2X c #C76864",
"3X c #C3736C",
"4X c #C67972",
"5X c #AF805F",
"6X c #AC8667",
"7X c #BB8B6C",
"8X c #B58768",
"9X c #B7916E",
"0X c #BC9471",
"qX c #BD9A74",
"wX c #BA9876",
"eX c #AD8C75",
"rX c #AE9576",
"tX c #C28869",
"yX c #C78974",
"uX c #C49A79",
"iX c #C5A47B",
"pX c #D0AF76",
"aX c #928C8B",
"sX c #A29998",
"dX c #AF9489",
"fX c #B4ADA9",
"gX c #ADACAB",
"hX c #B8A084",
"jX c #CE9E83",
"kX c #C7A886",
"lX c #C0BCB7",
"zX c #D3C9BE",
"xX c #C9C8C7",
"cX c #D6D5D5",
"vX c #D2CAC5",
"bX c #E9E9E8",
/* pixels */
"                                                                                                                                                    ",
"                                                                : : : : : : : : , , : : : < <                                                       ",
"                                                        : : : < < < 1 1 1 1 3 8 7 3 7 3 1 1 < : : : : :                                             ",
"                                                    : 1 2 3 8 8 c z z z z c 9 c 8 < 2 0 c c 0 8 5 1 : : : :                                         ",
"                                                : 1 7 9 C Z F I H H H F Z Z Z Z F 8 , < 8 G G L C z 7 1 : : : :                                     ",
"                                              , 7 z G G I I I I H I H H I I I H F F 7 = < 8 L G Z C z c 5 5 2 : : :                                 ",
"                                            1 0 G I I G I I I I I H H I H H H H J F c 2 = 2 9 L I Z Z Z 9 3 9 5 2 : : =                             ",
"                                          2 C G G I I I G I G G H I I H I I H I P J J 0 = , 5 c Z I I I C 5 5 c 8 3 1 : :                           ",
"                                      = < z G G P I P G G I I G H P P H J J P P P P P G 2 = 1 8 F P I H F 0 1 8 c 7 7 2 : :                         ",
"                                  : : : 0 F G G G G G P I G G I P H P P J J P P P I I F 9 # : 3 c P P I I Z 2 7 c 8 8 7 5 < :                       ",
"                                = : 1 8 Z G G G F F G G G G G G P P F P J J P P P I I I 0 < = 1 9 H I I I F 5 3 8 9 7 7 3 5 < :                     ",
"                              = : 1 2 0 Z G G C 7 C F G G G G G F H F P J J J P P I I I G 5 = , 5 F I I I F 9 1 8 9 7 7 5 1 5 < :                   ",
"                              = 1 , 8 C C F F 7 , c F F F G G G H F F P P P J P P I I I P 9 = : 2 c I I I H z < 9 9 7 7 7 < 5 3 : :                 ",
"                            = 1 1 1 0 C Z F c 1 # c C F F F G G F P G H H F J J P P I I P 0 = = 1 9 I I I I c : 8 9 7 7 7 1 < 3 < : =               ",
"                          : : 2 = 7 0 C C C 0 : # 0 C C Z F G F F H F G H J P J P P P I P c : = , 8 P I I H x : 7 9 7 3 7 1 = 2 3 < :               ",
"                          # < < : 7 0 0 C C 7 @ = C C C C Z Z F F H H G G G F P J P P P P L < = : 5 J P I I c : 3 8 7 3 3 3 = < 1 1 : =             ",
"                        : : 1 # 1 8 0 0 C z 5 X < c c c c x F F F G F F G G G G G G G I I C 1 @ = 3 J J I F z = 3 8 5 3 3 3 : = 1 1 : = =           ",
"                        @ : , @ 3 8 9 0 0 9 1 X 4 x x 9 7 x C F C G C G C F G G I I G I I C 3 @ = 2 F J F Z 0 = 2 3 3 2 3 2 : # , 1 < : =           ",
"                      : # : : : 3 7 8 0 0 8 : & h x 0 2 3 c c C C C C G G C G G G G I G Z C 3 @ = 1 G F F x 8 = 2 1 < 1 3 2 : # = 1 < : = @         ",
"                      # # : # , 3 7 8 8 9 5 = % k 0 0 , 1 c C c C C C C C G C C F F C I C C 3 @ # 1 L F Z z 5 = 2 , = 1 1 2 : # = < < , : @         ",
"                      @ @ : : : 3 5 7 9 8 3 @ w 6 0 8 # 1 z z z C C C C C C C C C C G Z Z z 3 @ @ 1 L x c 0 3 = 1 = @ 1 2 1 : = = , < : : @         ",
"                      @ # : @ : 1 3 7 8 8 1 + u 8 0 8 & 4 9 c z C z z z C C C C C C C C C z 1 @ @ 2 c L z 9 1 = 1 = + < 1 < : @ = : < = : = @       ",
"                    : + # : @ : 1 3 5 7 8 < & u 8 8 2 % 6 9 9 c z 0 0 z C 0 z C C C C C C 9 1 @ @ 2 c c 9 8 , : 1 - @ < 1 < : = @ = < : = = @       ",
"                    # + @ : + : < 3 3 5 5 : q d 7 8 1 q 5 8 9 c 0 0 0 0 0 0 0 z 0 0 x 0 C 9 : + @ 3 0 0 8 5 = : 1 $ @ : 1 < : @ @ = : : = = @       ",
"                    # + @ : + : < 2 3 3 2 = w d 7 7 : w 5 8 8 9 8 0 0 9 0 0 0 0 0 0 0 0 0 8 : X # 5 0 8 5 3 @ : < % @ < < < : @ @ = : : = = @       ",
"                    # + @ @ @ : : < 2 3 1 @ a j 7 5 = e 5 8 8 8 9 8 9 9 9 9 9 9 9 0 0 9 9 5 : + = 7 9 8 5 1 @ < 1 % @ : < : : @ @ = : : = = @       ",
"                    @ + @ : @ # : < < 3 1 - ( h 5 5 - d 5 7 7 8 8 8 8 9 9 9 8 9 8 0 0 8 8 5 @ + : 7 8 5 3 < @ < > $ # < < < = @ + = : = = = @ X     ",
"                    @ + @ @ + : = : : < : % | h 2 2 * d 3 5 7 8 8 8 8 8 8 8 9 8 8 8 8 8 7 3 @ O < 7 5 3 1 : # , ; & # , : : = @ @ = : = = @ @ X     ",
"                    @ X X O & o o X O + + w | ; = = w e 1 2 2 3 5 5 8 5 5 5 5 8 7 8 5 5 5 1 + + 1 5 5 2 1 # # < > o # < : : = @ @ = = = = # @ O     ",
"                    @ . . % w q % q % $ & w 3.| u q a e @ # = : : 1 1 1 5 5 5 5 5 5 5 5 5 : + @ 3 5 3 1 , @ = < ; X = : : : = @ @ = = = = @ + X     ",
"                    + X . w u d t t t t q * n 3.a y | +.| w w q % & o # : : : 1 1 1 2 2 1 = + # 5 3 1 1 : + = < - O = : : : @ + @ = = = # @ @ X     ",
"                    _._._._.C.b.b.n a s | m 4 j s ( 3.3.| y t t w t w w w % $ + @ # : : : @ + : 1 1 1 : = - = : - + = : = = # + @ = = = # @ + X     ",
"                  eXQ Q Q _..X@X6X6XeX8X8X8X}.W M 3.i.g.2.2.| s a a i y y t t t w w q $ & O O : , , , : # @ : , * O = : : # @ @ @ = = @ @ @ +       ",
"                wX  Y U R D.D.D.G.G.G.G.G.H.OXOX6X9X9X7X+X}.R.M.8.3.3.2.2.| s a a y t t t w w q & + # # + + : : * + = = # = @ + @ = @ = @ @ +       ",
"                hX  T L M N R R R R D.D.D.F.F.F.b.F.F.R.].}.6X9X9X0X8X+X].L.0.8.5.2.2.| f | s t t w % o X # = = * @ = : # # @ @ = = @ = @ @ X       ",
"              iX    T x M N N N N D N R B D 7.0.8.8.8.8.0.S.L.L.L.!.].OX6X9XwX0XyX8X{.L.f.f.8.2.s i y t w * = - * # = = # @ + + @ = = @ @ X X       ",
"              iX      z M N N M b v v b M N B 6.4.8.3.q.8.8.9.9.9.K.K.L.R.!.!.XXXXeXeXhXuXuXtX].0.&.) s ~ i w u q # # = # @ O @ = @ # @ @ O X       ",
"              hX    .Xv N N b 2 2 1 < , 1 v M m 4.4.3.5.8.8.g.8.9.f.K.f.S.F.K.L.L.!.^.~.[.XXOX6X9X9X8X].8.| _ ( a $ X + @ @ O @ = # @ @ + + X       ",
"              kX    9.v N v 1 5 c gXsX, , , h B 6.4.3.8.g.f.M.g.f.Y.K.K.S.9.K.K.K.K.F.K.K.L./.^.^.R.`.OX9X8X5.o.| y % . X X X = # # @ + + O X       ",
"            qX    G.0.M M 7 ! aXA xXgX, , 4 : j m 2.5.M.R.N.f.f.8.8.B b b M N B 7.7.F.9.F.9.9.f.R.L.f.g.8.(.5X;.X.( t w . X @ = # @ @ @ + X O       ",
"            kX    D.B 6.B T cX! b , , , , Z T 6 M m 8X6X5XuX^.f.3.3.2.d j h 4 4 4 4 5 b M m 7.`.pX7Xg.f.g.0.0X3.X.| ( y w . + # @ # @ + O X +       ",
"            iX    9.6.6.6.aXcXQ V , , , , A fXgXh ).}.;.h.`.7X9.g.2.2.d d e e r j e r e h j l S pX(.6.0.8.8.0X*.X. .] ^ t X @ # @ @ @ + X O         ",
"            qX    0.0.6.6.7.aX.XD 4 , , A _.cXbXeX6X3.w.i.9.qXL.9.3.2.d j r ; 7 gXsX# = 2 > iXpXpXm m 4.4.0.qX2.| | ' ) i + @ @ @ @ @ + O +         ",
"            iX    f.0.6.0.8.F.W E E S _.6XlXbXbXzX}...;.e.8.uXR.K.8.2.n h # > l gX! O O > V pXpX_.B 6.6.4.6.0X2.[ ] ) ' p o @ @ @ + + O X +         ",
"            kX    f.0.0.0.f.K.L.H.W Q dXvXbXbXbXkXb.+.3.d.8.0XR.Y.f.4.n < aXl > O O O O 3 D gXlXY l N 7.B 7.9X-. .' ' ' ^ $ @ @ @ @ O X X @         ",
"              kX  f.0.7.0.f.L.R.^.!.H. XaXsXsXdX5Xo.+.5.Y.f.8X].Y.K.0.m aXxXl k O O O O V E xXcXvXT b N B D.9XX.] ' ^ ^ ^ q + + @ + X X O @         ",
"              kX  f.7.b.b.M.L.R.^.~.[.~.!.!.R.9Xb.;.3.N.W.^.6X]./.Y.M.6.gXcX! D 1 @ O 6 ).eXcXcXbXcXv B 6.(.OX . .' ' ^ ~ w + @ O X o e g           ",
"              qXkXK.F.b.T.T.R.Q.^.{.~.[.~.~.7X].i.O.i.U.-X^.].8X^.R.L.F. XlXlXE E W ).9X6XcXcXcXxXfX Xb.7.+X`. .' ' ' ^ ~ u O O . & m j.z.u.        ",
"                6XqX5X(.J.`.'.'.{.<X[.[.oX7X}.N.e.3.h.k.U.-XL.wX^.^.~./.L.G..XaXW W ). X X X XH.H.J.F.K.9.0Xb.{ ' ' ` ^ ^ i O O * 2.g.j.t.y.$.      ",
"                  p._.6X9X7XtXtX3XtX7X7X9X].V.i.&.w.u.h.l.$Xf.9XXX[.!./.~.~.!.!.H.XXXXXXXXXX[.~./.K.K.f.R.0X{ { ' ' ^ ^ ^ ~ . e 2.y.&.) _ ^ ..      ",
"                  o.-.=.v.C.`.}.5X5X|.].E.V.g.&.:.#.:.u.u.h.g.R.jXoX[.[.oXoXoXoXoXoXoXoXoXoX[.~.R.K.f.f.8X`...{ ' ' ^ ^ ^ ^ ) 3.y.| i p ~ ) ..      ",
"                  L.-.=.v.m.A.Z.Z.E.E.T.n.g.3.:.#.u.l.l.a.:.p.g.OXuX3X3X3X3X3X3XXXoX3X3X3XoX[.~./.M.M.~.wX*.o.{ ' ^ ^ ^ ^ ^ { r.( p ^ ..O.;.w.      ",
"                  gXg =.v.c.v.n.n.A.M.n.n.p.p.:.a.#X;X-XP.$.:.g.g.}.kXyX3X4X4X4X+X4X4X4X3X{.|.[.Q.L.T.uXT.*.o.{ ` ^ ^ ~ ^ ^ { ' ~ ' $.r.i.i.t.      ",
"                sX_.-.c.c.v.v.n.n.A.n.A.M.V.s.} z.#X;X2X*Xw...h.f.M.!.8XuXkXyX4X4X4X4X4X4X3X,X'.R.'.iX].>.*.} [ ^ ^ ^ ^ ~ ^ ' ^ ' $.r.h.k.N.t.      ",
"                    ] -.v.A.C.Z.Z.Z.Z.&XE.V.s._ $.h.I.U.P.+.' h.L.M.L.Q.{.|.7XuXkXuXjXyXyXtXtXtXuXuX`.=.=.*.*.] ' ^ ~ ~ ^ ^ ^ ' ..w.t.z.P.P.y.      ",
"                    ] -.,.v.A.Z.E.E.&X&X&XV.s.[ i ) +.+.) p O.k.W.T.L.M.T.Q.{.{.{.+X+X8X9X0X9X5X`.A.m.,.*.*.} [ ^ ^ ~ ~ ^ ^ ^ ' $.w.h.k.Y.P.        ",
"                    a -.*.,.A.l.E.E.$X$XE.V.l.u._ i y i i ) i.I.=X<XT.T.C.C.T.Q.`.Q.'.<X1X1XZ.Z.Z.A.v.,.*.*.} ] ~ ~ ~ ~ ~ ^ ' ..$.u.j.P.U.y.        ",
"                    p ] -.,.s.l.V.V.E.V.P.B.B.l.j.3.3.| +.d.Y./.=X:X{.<X^.Q.T.C.C.C.C.C.C.C.n.C.A.v.=.=.=.-.] / ^ ~ p ~ ^ ^ { #.w.h.P.U.P.          ",
"                    e.&.%.*.,.s.V.B.B.B.B.B.V.$XW.W.U.W.W.-X-X-X:X:X,X2X,X`.<X'.'.T.Z.C.C.n.n.n.v.=.,.=.*.} ] ~ ~ ~ p ~ ^ ' ..w.t.l.U.U.3.          ",
"                  s.I.%Xs.%.:.u.j.B.B.l.l.l.P.#X*X-X;X2X2X2X2X-X:X:X:X2X,X,X,X,X,X<X'.Q.Z.C.n.A.m.v.,.*.-.] / ~ p p p ~ ^ ..$.u.z.I.U.i.            ",
"                { :.B.*X*Xu.#.r.h.z.z.h.a.u.d.z.S.S.*X;X>X2X>X>X:X-X:X:X,X,X,X,X,X<X1X1X&XZ.Z.m.m.,.=.*.} _ ~ p p p p ^ { $.t.z.P.$Xz.              ",
"                / ;.j.#X=XV.o.;.u.h.z.a.x.1.@.@.@.1.<.x.S./.-X-X=X-X:X:X:X:X,X:X<X<X1X&XZ.Z.A.p.,.,.-.} / ~ p p i i p ^ $.t.@XoXB.j. .              ",
"                  #.a.U.*XU.:.X.w.a.z.a.x.r.x.S.S.S.x.<.1.@.x.g.Y.*X=X-X-X:X:X1X1X=X&XM.Z.V.m.p.>.*.} ] ~ p p i i i p ~ w.z.dXsXXX|                 ",
"                  #.j.U.=XU.r.) $.u.a.z.d.:.<.S.S./.^.^.~./.S.q.1.g.U.W.*X=X=X=X*XW.V.V.V.p.,.>.*.} ] ~ ~ p i i i i y t ( w.d.@XsX                  ",
"                  $.B.%X=XI.;._ ..;.t.h.j.i.y. .<.d.S././.^.^./.S.d.f.W.*X-X*XW.U.N.M.j.p.e.>.*.[ / ^ ~ p i i y y           ~                       ",
"                  :.I.=X-XB.X.~ [ o.w.i.h.j.h.t.w.+. . .<.<.<.x.y.Y.*X-X*X*XW.I.Y.z.s.t.:.&.*.[ ] ~ p p i y y y                                     ",
"                  u.#X-X*Xk.) p ^ ' $.w.i.j.k.z.h.i.i.t.y.i.h.z.P.U.=X;X^.I.k.k.j.i.y.&.o.X.' ) ~ p p i y i t                                       ",
"                  j.%X;X%Xi.p i p ` ..$.y.i.i.z.k.P.Y.P.P.P.Y.U.W.W.P.z.z.$X#Xz.y.w.O.o. .) ^ ~ p p y y y y                                         ",
"                #.B.=X=XU.r.^ p i ~ ) ..;.y.t.h.z.k.B.I.Y.Y.P.k.a.z.$X*X-X>X;XP.O.o...' ^ ~ p p i i y t                                             ",
"                :.$X=X*XI.r./   t p ~ ' ..;.y.t.i.h.j.h.i.t.h.$X*X;X>X>X-X=X%Xj. .' ^ ~ p p i i y y t                                               ",
"              ..j.*X=X%XB.a.%.    i p ~ ' o.$.y.y.r.u.a.P.%X=X>X2X-X=X%XB.k.i.X._ ~ ~ p i i y y t                                                   ",
"              u.U.=X=X%XP.s.:.%.    i ~ ) ..:.u.h.P.%X=X;X>X>X=XU.V.j.e.o._ ~ p p p i i i y t t                                                     ",
"            u.$X=X;X*X$XB.a.u.:.:.:.u.a.l.B.I.%X;X>X>X;X=XW.P.j.e.&._ p p ~ p p i i y y y t                                                         ",
"          :.l.*X;X=X=X%X$Xl.l.l.B.$X#X*X*X=X;X:X=X=XW.N.i.w.X._ p p p p p i i i y y t                                                               ",
"        %.u.$X=X;X;X=X*X*X*X*X;X=X;X>X>X>X;X*XW.B.i.&.[ ~ i i i p p i i y y t t                                                                     ",
"      { u.l.#X=X;X;X;X;X;X;X>X>X>X>X>X=X=X#XN.e.[ ~ i y i i i i y y y t                                                                             ",
"      :.a.P.%X;X;X;X;X;X>X>X>X>X>X;X=X*XY.j.;.~ i i ~ ~ i                                                                                           ",
"    %.u.l.$X%X=X;X;X;X;X>X>X;X;X;X=X%X$XP.N.g.;.[ { { ` /                                                                                           ",
"    >.a.l.$X*X;X=X;X;X;X;X;X;X;X;X=X=X%XW.=XW.P.V.N.h.:.` p                                                                                         ",
"  { :.a.B.$X*X=X;X=X;X;X;X;X;X;X;X;X>X=X-X-X-X=X=X*XI.a.` i                                                                                         ",
"  ` u.l.B.$X%X*X=X=X=X;X=X;X>X=X;X>X>X;X;X;X>X;X=X%XB.e.~ y                                                                                         ",
"  { :.a.B.$X%X*X*X=X=X=X=X=X=X=X=X;X=X;X-X=X*X%XU.B.r.[ i                                                                                           ",
"  { :.a.l.$X$X%X*X*X*X*X=X=X=X=X=X=X=X%X%XU.P.B.i.&._ i                                                                                             ",
"  ` :.u.z.B.$X$X%X%X%X*X%X*X%X%X%X%X%X#XI.B.N.i.[ i ~ _                                                                                             ",
"  ` #.u.h.V.$X$X$X#X%X%X#X%X%X%X%X%X#X$XB.B.j.y.&.e.:.` p                                                                                           ",
"  ' #.u.a.l.B.$X$X$X$X$X#X#X#X%X%X%X%X#X%X%X%XU.B.k.r./ p                                                                                           ",
"  ~ { :.a.z.B.P.P.$X$X$XU.#XU.#X%X%X=X=X=X=X*XU.N.s.:./ i                                                                                           ",
"    { :.u.s.l.B.P.$X$X#X#XU.#X%X%X%X=X=X=X=X#Xl.a.w.{ p                                                                                             ",
"    / #.r.a.V.l.P.I.I.U.#X#X#X#X%X%X%X%X%XB.a.e.;.[ ~ i                                                                                             ",
"    ~ { :.a.j.l.B.P.I.I.#XI.$X#XU.I.P.N.a.;.&.[ ~ p p                                                                                               ",
"      ` ;.r.h.k.B.B.P.I.I.I.I.I.B.B.h.i.e.;.[ p _ [ #./                                                                                             ",
"      ~ ..;.u.j.k.B.B.B.B.B.B.B.B.j.h.i.r.r.j.i.j.V.r./                                                                                             ",
"        / #.;.i.s.j.j.k.V.B.B.B.N.j.k.l.P.W.*X%XU.B.:.~                                                                                             ",
"        p ` o.:.r.i.a.h.a.j.j.k.k.V.B.I.*X*X=XW.B.e./                                                                                               ",
"          p ^ { o.:.r.r.r.i.u.i.i.a.a.k.P.%XI.j.;._                                                                                                 ",
"            i p / ` [ ..o.o.&.o.;.&.;.;.&.;.O.] p                                                                                                   ",
"                i i p p ~ ~ ~ ~ ~ p p p p p i                                                                                                       ",
"                                                                                                                                                    ",
"                                                                                                                                                    ",
"                                                                                                                                                    "
};
